<?xml version="1.0" standalone="no"?>
<!DOCTYPE svg PUBLIC "-//W3C//DTD SVG 20010904//EN"
 "http://www.w3.org/TR/2001/REC-SVG-20010904/DTD/svg10.dtd">
<svg version="1.0" xmlns="http://www.w3.org/2000/svg"
 width="512.000000pt" height="512.000000pt" viewBox="0 0 512.000000 512.000000"
 preserveAspectRatio="xMidYMid meet">
<metadata>
Created by potrace 1.14, written by Peter Selinger 2001-2017
</metadata>
<g transform="translate(0.000000,512.000000) scale(0.100000,-0.100000)"
fill="#000000" stroke="none">
<path d="M2278 5115 c-1 -1 -24 -6 -49 -9 -206 -27 -442 -176 -575 -361 -124
-173 -190 -419 -163 -610 16 -118 22 -142 50 -220 61 -169 101 -219 468 -588
l336 -337 -50 -1 c-27 0 -501 0 -1052 -1 l-1002 0 3 -291 c5 -337 14 -408 78
-604 16 -51 43 -120 59 -153 16 -33 29 -62 29 -64 0 -14 115 -187 168 -254
214 -271 558 -481 881 -537 19 -3 37 -8 40 -10 13 -7 170 -18 359 -25 7 0 12
-14 12 -35 0 -40 18 -81 48 -108 19 -18 20 -31 20 -426 0 -224 2 -416 6 -427
3 -11 19 -27 35 -37 25 -15 71 -17 432 -17 l404 0 30 24 c38 30 39 86 3 123
-24 23 -30 24 -165 25 l-139 0 0 357 c1 328 2 359 19 375 27 27 46 70 49 110
1 20 7 36 13 37 5 0 129 2 275 4 146 2 276 5 290 8 76 13 181 40 186 48 3 5
12 9 20 9 25 0 154 68 219 115 140 102 242 225 318 387 15 31 27 63 27 70 0 8
4 18 9 23 6 6 19 55 30 109 16 78 19 127 16 220 -4 139 -8 162 -42 271 -23 74
-63 158 -108 230 -28 43 -88 119 -102 128 -7 4 -17 16 -22 26 -9 17 -6 17 42
9 121 -20 278 -9 406 28 302 88 543 319 640 615 39 118 48 204 48 463 0 233
-1 248 -23 302 -37 91 -117 158 -213 179 -18 4 -332 7 -698 7 -505 -1 -665 2
-668 11 -3 7 -7 30 -9 52 -13 107 -70 253 -143 362 -45 69 -161 186 -224 227
-24 16 -55 36 -69 45 -102 67 -265 111 -427 116 -66 2 -123 2 -125 0z m12
-4086 c0 -40 20 -91 47 -120 l25 -27 -1 -328 c0 -181 0 -341 0 -356 l-1 -27
-120 0 -120 1 0 354 0 355 30 38 c18 21 33 55 36 77 9 59 8 59 58 59 43 0 46
-2 46 -26z"/>
</g>
</svg>
